<svg xmlns="http://www.w3.org/2000/svg">
    <path fill="black" d="M 143.6 397.8 H 122.6 C 120.9 397.8 119.1 395.8 115.6 395.8 C 113.9 393.7 112.1 391.7 112.1 389.7 C 110.4 387.7 110.4 385.6 110.4 383.6 C 108.6 379.5 110.4 377.5 110.4 375.5 L 162.8 239.6 L 84.1 237.6 L 54.4 278.1 C 49.2 286.2 45.7 290.3 33.4 290.3 H 19.4 C 17.7 290.3 14.2 290.3 12.4 288.3 C 10.7 288.3 8.9 286.2 7.2 284.2 C 5.4 280.2 3.7 276.1 5.4 268 L 21.2 201.1 C 21.2 199 21.2 199 21.2 199 C 21.2 199 21.2 199 21.2 199 C 21.2 199 21.2 197 21.2 197 L 5.4 130.1 C 3.7 122 5.4 117.9 7.2 113.9 C 8.9 111.8 10.7 109.8 12.4 109.8 C 14.2 107.8 15.9 107.8 19.4 107.8 H 33.4 C 42.2 107.8 50.9 111.8 56.2 119.9 L 84.1 158.5 L 162.8 158.5 L 110.4 22.6 C 110.4 20.6 108.6 18.5 110.4 14.5 C 110.4 12.4 110.4 10.4 112.1 8.4 C 112.1 6.4 113.9 4.3 115.6 2.3 C 119.1 2.3 120.9 2.3 122.6 2.3 H 145.4 C 147.1 2.3 150.6 2.3 154.1 4.3 C 155.9 6.4 159.4 8.4 161.1 10.4 L 262.5 154.4 L 309.8 154.4 C 313.3 154.4 323.7 152.4 325.5 152.4 C 371 154.4 397.2 170.6 397.2 199 C 397.2 207.1 395.5 225.4 374.5 235.5 C 362.2 241.6 346.5 245.7 325.5 245.7 C 323.7 245.7 313.3 245.7 309.8 243.7 L 262.5 243.7 L 161.1 387.7 C 157.6 389.7 155.9 391.7 154.1 393.7 C 150.6 395.8 147.1 395.8 143.6 397.8 Z"/>
</svg>