<svg width="108" height="64" viewBox="0 0 108 64" fill="none" xmlns="http://www.w3.org/2000/svg">
<path d="M40.25 30.8141C39.7772 30.6065 39.2664 30.4996 38.75 30.5H25.25C24.7337 30.4995 24.2229 30.6063 23.75 30.8136C23.0817 31.1059 22.5129 31.5865 22.1134 32.1968C21.7138 32.8071 21.5006 33.5205 21.5 34.25V39.5C21.5 39.6989 21.579 39.8897 21.7197 40.0303C21.8603 40.171 22.0511 40.25 22.25 40.25C22.4489 40.25 22.6397 40.171 22.7803 40.0303C22.921 39.8897 23 39.6989 23 39.5V39.125C23.0012 39.0259 23.0411 38.9312 23.1112 38.8612C23.1812 38.7911 23.2759 38.7512 23.375 38.75H40.625C40.7241 38.7512 40.8188 38.7911 40.8888 38.8612C40.9589 38.9312 40.9988 39.0259 41 39.125V39.5C41 39.6989 41.079 39.8897 41.2197 40.0303C41.3603 40.171 41.5511 40.25 41.75 40.25C41.9489 40.25 42.1397 40.171 42.2803 40.0303C42.421 39.8897 42.5 39.6989 42.5 39.5V34.25C42.4993 33.5206 42.2861 32.8073 41.8865 32.1971C41.4869 31.5869 40.9183 31.1063 40.25 30.8141ZM37.625 23.75H26.375C25.6788 23.75 25.0111 24.0266 24.5188 24.5188C24.0266 25.0111 23.75 25.6788 23.75 26.375V29.75C23.75 29.7791 23.7568 29.8077 23.7698 29.8337C23.7828 29.8597 23.8016 29.8823 23.8249 29.8998C23.8481 29.9172 23.8751 29.929 23.9036 29.9343C23.9322 29.9395 23.9616 29.9381 23.9895 29.93C24.399 29.8102 24.8234 29.7496 25.25 29.75H25.4483C25.4946 29.7503 25.5393 29.7335 25.5739 29.7027C25.6085 29.672 25.6306 29.6296 25.6358 29.5836C25.6767 29.2171 25.8512 28.8786 26.1259 28.6326C26.4006 28.3866 26.7563 28.2504 27.125 28.25H29.75C30.119 28.25 30.475 28.3861 30.75 28.6321C31.025 28.8781 31.1997 29.2169 31.2406 29.5836C31.2458 29.6296 31.2679 29.672 31.3025 29.7027C31.3371 29.7335 31.3818 29.7503 31.4281 29.75H32.5747C32.621 29.7503 32.6657 29.7335 32.7003 29.7027C32.735 29.672 32.757 29.6296 32.7622 29.5836C32.8031 29.2174 32.9773 28.879 33.2517 28.633C33.5261 28.3871 33.8815 28.2507 34.25 28.25H36.875C37.244 28.25 37.6 28.3861 37.875 28.6321C38.15 28.8781 38.3247 29.2169 38.3656 29.5836C38.3708 29.6296 38.3929 29.672 38.4275 29.7027C38.4621 29.7335 38.5068 29.7503 38.5531 29.75H38.75C39.1766 29.7498 39.6011 29.8106 40.0105 29.9305C40.0384 29.9385 40.0679 29.94 40.0965 29.9347C40.1251 29.9295 40.1521 29.9176 40.1753 29.9001C40.1986 29.8826 40.2174 29.8599 40.2304 29.8339C40.2433 29.8078 40.2501 29.7791 40.25 29.75V26.375C40.25 25.6788 39.9734 25.0111 39.4812 24.5188C38.9889 24.0266 38.3212 23.75 37.625 23.75Z" fill="black"/>
<path d="M66.25 39.5V34.25C66.2523 33.4551 66.5692 32.6934 67.1313 32.1313C67.6934 31.5692 68.4551 31.2523 69.25 31.25H82.75C83.5449 31.2523 84.3066 31.5692 84.8687 32.1313C85.4308 32.6934 85.7477 33.4551 85.75 34.25V39.5M82 31.25H68.5V26.375C68.5015 25.8782 68.6995 25.4021 69.0508 25.0508C69.4021 24.6995 69.8782 24.5015 70.375 24.5H81.625C82.1218 24.5015 82.5979 24.6995 82.9492 25.0508C83.3005 25.4021 83.4985 25.8782 83.5 26.375V31.25H82Z" stroke="black" stroke-width="1.5" stroke-linecap="round" stroke-linejoin="round"/>
<path d="M66.25 39.5V39.125C66.2509 38.8269 66.3697 38.5413 66.5805 38.3305C66.7913 38.1197 67.0769 38.0009 67.375 38H84.625C84.9231 38.0009 85.2087 38.1197 85.4195 38.3305C85.6303 38.5413 85.7491 38.8269 85.75 39.125V39.5M69.25 31.25V30.5C69.2511 30.1025 69.4095 29.7216 69.6906 29.4406C69.9716 29.1595 70.3525 29.0011 70.75 29H74.5C74.8975 29.0011 75.2784 29.1595 75.5594 29.4406C75.8405 29.7216 75.9989 30.1025 76 30.5V31.25M76 31.25V30.5C76.0011 30.1025 76.1595 29.7216 76.4406 29.4406C76.7216 29.1595 77.1025 29.0011 77.5 29H81.25C81.6475 29.0011 82.0284 29.1595 82.3094 29.4406C82.5905 29.7216 82.7489 30.1025 82.75 30.5V31.25" stroke="black" stroke-width="1.5" stroke-linecap="round" stroke-linejoin="round"/>
<rect x="0.5" y="0.5" width="107" height="63" rx="4.5" stroke="#9747FF" stroke-dasharray="10 5"/>
</svg>
