<svg width="108" height="64" viewBox="0 0 108 64" fill="none" xmlns="http://www.w3.org/2000/svg">
<path d="M28.25 39.5V42.5M23.75 21.5H32.75C33.1478 21.5 33.5294 21.658 33.8107 21.9393C34.092 22.2206 34.25 22.6022 34.25 23V42.3125C34.25 42.3622 34.2302 42.4099 34.1951 42.4451C34.1599 42.4802 34.1122 42.5 34.0625 42.5H22.25V23C22.25 22.6022 22.408 22.2206 22.6893 21.9393C22.9706 21.658 23.3522 21.5 23.75 21.5V21.5ZM35 29H40.25C40.6478 29 41.0294 29.158 41.3107 29.4393C41.592 29.7206 41.75 30.1022 41.75 30.5V42.5H34.25V29.75C34.25 29.5511 34.329 29.3603 34.4697 29.2197C34.6103 29.079 34.8011 29 35 29Z" stroke="black" stroke-width="1.5" stroke-linecap="round" stroke-linejoin="round"/>
<path d="M24.5973 40.2439C24.4419 40.2642 24.2841 40.2354 24.146 40.1615C24.0079 40.0875 23.8964 39.9722 23.8272 39.8317C23.758 39.6911 23.7345 39.5325 23.76 39.3779C23.7856 39.2234 23.8589 39.0807 23.9697 38.9699C24.0804 38.8591 24.2231 38.7858 24.3777 38.7603C24.5322 38.7347 24.6909 38.7582 24.8314 38.8274C24.972 38.8967 25.0873 39.0082 25.1612 39.1463C25.2351 39.2844 25.264 39.4422 25.2437 39.5975C25.2222 39.7614 25.1472 39.9137 25.0303 40.0306C24.9134 40.1475 24.7612 40.2225 24.5973 40.2439ZM24.5973 36.4939C24.4419 36.5142 24.2841 36.4854 24.146 36.4115C24.0079 36.3375 23.8964 36.2222 23.8272 36.0817C23.758 35.9411 23.7345 35.7825 23.76 35.6279C23.7856 35.4734 23.8589 35.3307 23.9697 35.2199C24.0804 35.1091 24.2231 35.0358 24.3777 35.0103C24.5322 34.9847 24.6909 35.0082 24.8314 35.0774C24.972 35.1467 25.0873 35.2582 25.1612 35.3963C25.2351 35.5344 25.264 35.6922 25.2437 35.8475C25.2222 36.0114 25.1472 36.1637 25.0303 36.2806C24.9134 36.3975 24.7612 36.4725 24.5973 36.4939ZM24.5973 32.7439C24.4419 32.7642 24.2841 32.7354 24.146 32.6615C24.0079 32.5875 23.8964 32.4722 23.8272 32.3317C23.758 32.1911 23.7345 32.0325 23.76 31.8779C23.7856 31.7234 23.8589 31.5807 23.9697 31.4699C24.0804 31.3591 24.2231 31.2858 24.3777 31.2603C24.5322 31.2347 24.6909 31.2582 24.8314 31.3274C24.972 31.3967 25.0873 31.5082 25.1612 31.6463C25.2351 31.7844 25.264 31.9422 25.2437 32.0975C25.2222 32.2614 25.1472 32.4137 25.0303 32.5306C24.9134 32.6475 24.7612 32.7225 24.5973 32.7439ZM24.5973 28.9939C24.4419 29.0142 24.2841 28.9854 24.146 28.9115C24.0079 28.8375 23.8964 28.7222 23.8272 28.5817C23.758 28.4411 23.7345 28.2825 23.76 28.1279C23.7856 27.9734 23.8589 27.8307 23.9697 27.7199C24.0804 27.6091 24.2231 27.5358 24.3777 27.5103C24.5322 27.4847 24.6909 27.5082 24.8314 27.5774C24.972 27.6467 25.0873 27.7582 25.1612 27.8963C25.2351 28.0344 25.264 28.1922 25.2437 28.3475C25.2222 28.5114 25.1472 28.6637 25.0303 28.7806C24.9134 28.8975 24.7612 28.9725 24.5973 28.9939ZM24.5973 25.2439C24.4419 25.2642 24.2841 25.2354 24.146 25.1615C24.0079 25.0875 23.8964 24.9722 23.8272 24.8317C23.758 24.6911 23.7345 24.5325 23.76 24.3779C23.7856 24.2234 23.8589 24.0807 23.9697 23.9699C24.0804 23.8591 24.2231 23.7858 24.3777 23.7603C24.5322 23.7347 24.6909 23.7582 24.8314 23.8274C24.972 23.8967 25.0873 24.0082 25.1612 24.1463C25.2351 24.2844 25.264 24.4422 25.2437 24.5975C25.2222 24.7614 25.1472 24.9137 25.0303 25.0306C24.9134 25.1475 24.7612 25.2225 24.5973 25.2439ZM28.3473 36.4939C28.1919 36.5142 28.0341 36.4854 27.896 36.4115C27.7579 36.3375 27.6464 36.2222 27.5772 36.0817C27.508 35.9411 27.4845 35.7825 27.51 35.6279C27.5356 35.4734 27.6089 35.3307 27.7197 35.2199C27.8304 35.1091 27.9731 35.0358 28.1277 35.0103C28.2822 34.9847 28.4409 35.0082 28.5814 35.0774C28.722 35.1467 28.8373 35.2582 28.9112 35.3963C28.9852 35.5344 29.014 35.6922 28.9937 35.8475C28.9722 36.0114 28.8972 36.1637 28.7803 36.2806C28.6634 36.3975 28.5112 36.4725 28.3473 36.4939ZM28.3473 32.7439C28.1919 32.7642 28.0341 32.7354 27.896 32.6615C27.7579 32.5875 27.6464 32.4722 27.5772 32.3317C27.508 32.1911 27.4845 32.0325 27.51 31.8779C27.5356 31.7234 27.6089 31.5807 27.7197 31.4699C27.8304 31.3591 27.9731 31.2858 28.1277 31.2603C28.2822 31.2347 28.4409 31.2582 28.5814 31.3274C28.722 31.3967 28.8373 31.5082 28.9112 31.6463C28.9852 31.7844 29.014 31.9422 28.9937 32.0975C28.9722 32.2614 28.8972 32.4137 28.7803 32.5306C28.6634 32.6475 28.5112 32.7225 28.3473 32.7439ZM28.3473 28.9939C28.1919 29.0142 28.0341 28.9854 27.896 28.9115C27.7579 28.8375 27.6464 28.7222 27.5772 28.5817C27.508 28.4411 27.4845 28.2825 27.51 28.1279C27.5356 27.9734 27.6089 27.8307 27.7197 27.7199C27.8304 27.6091 27.9731 27.5358 28.1277 27.5103C28.2822 27.4847 28.4409 27.5082 28.5814 27.5774C28.722 27.6467 28.8373 27.7582 28.9112 27.8963C28.9852 28.0344 29.014 28.1922 28.9937 28.3475C28.9722 28.5114 28.8972 28.6637 28.7803 28.7806C28.6634 28.8975 28.5112 28.9725 28.3473 28.9939ZM28.3473 25.2439C28.1919 25.2642 28.0341 25.2354 27.896 25.1615C27.7579 25.0875 27.6464 24.9722 27.5772 24.8317C27.508 24.6911 27.4845 24.5325 27.51 24.3779C27.5356 24.2234 27.6089 24.0807 27.7197 23.9699C27.8304 23.8591 27.9731 23.7858 28.1277 23.7603C28.2822 23.7347 28.4409 23.7582 28.5814 23.8274C28.722 23.8967 28.8373 24.0082 28.9112 24.1463C28.9852 24.2844 29.014 24.4422 28.9937 24.5975C28.9722 24.7614 28.8972 24.9137 28.7803 25.0306C28.6634 25.1475 28.5112 25.2225 28.3473 25.2439ZM32.0973 40.2439C31.9419 40.2642 31.7841 40.2354 31.646 40.1615C31.5079 40.0875 31.3964 39.9722 31.3272 39.8317C31.258 39.6911 31.2345 39.5325 31.26 39.3779C31.2856 39.2234 31.3589 39.0807 31.4697 38.9699C31.5804 38.8591 31.7231 38.7858 31.8777 38.7603C32.0322 38.7347 32.1909 38.7582 32.3314 38.8274C32.472 38.8967 32.5873 39.0082 32.6612 39.1463C32.7352 39.2844 32.764 39.4422 32.7437 39.5975C32.7222 39.7614 32.6472 39.9137 32.5303 40.0306C32.4134 40.1475 32.2612 40.2225 32.0973 40.2439ZM32.0973 36.4939C31.9419 36.5142 31.7841 36.4854 31.646 36.4115C31.5079 36.3375 31.3964 36.2222 31.3272 36.0817C31.258 35.9411 31.2345 35.7825 31.26 35.6279C31.2856 35.4734 31.3589 35.3307 31.4697 35.2199C31.5804 35.1091 31.7231 35.0358 31.8777 35.0103C32.0322 34.9847 32.1909 35.0082 32.3314 35.0774C32.472 35.1467 32.5873 35.2582 32.6612 35.3963C32.7352 35.5344 32.764 35.6922 32.7437 35.8475C32.7222 36.0114 32.6472 36.1637 32.5303 36.2806C32.4134 36.3975 32.2612 36.4725 32.0973 36.4939ZM32.0973 32.7439C31.9419 32.7642 31.7841 32.7354 31.646 32.6615C31.5079 32.5875 31.3964 32.4722 31.3272 32.3317C31.258 32.1911 31.2345 32.0325 31.26 31.8779C31.2856 31.7234 31.3589 31.5807 31.4697 31.4699C31.5804 31.3591 31.7231 31.2858 31.8777 31.2603C32.0322 31.2347 32.1909 31.2582 32.3314 31.3274C32.472 31.3967 32.5873 31.5082 32.6612 31.6463C32.7352 31.7844 32.764 31.9422 32.7437 32.0975C32.7222 32.2614 32.6472 32.4137 32.5303 32.5306C32.4134 32.6475 32.2612 32.7225 32.0973 32.7439Z" fill="black"/>
<path d="M32.5318 28.781C32.8237 28.4891 32.8225 28.0145 32.5291 27.721C32.2357 27.4276 31.7611 27.4264 31.4691 27.7184C31.1771 28.0104 31.1783 28.485 31.4718 28.7784C31.7652 29.0718 32.2398 29.073 32.5318 28.781Z" fill="black"/>
<path d="M32.0973 25.2439C31.9419 25.2642 31.7841 25.2354 31.646 25.1615C31.5079 25.0875 31.3964 24.9722 31.3272 24.8317C31.258 24.6911 31.2345 24.5325 31.26 24.3779C31.2856 24.2234 31.3589 24.0807 31.4697 23.9699C31.5804 23.8591 31.7231 23.7858 31.8777 23.7603C32.0322 23.7347 32.1909 23.7582 32.3314 23.8274C32.472 23.8967 32.5873 24.0082 32.6612 24.1463C32.7351 24.2844 32.764 24.4422 32.7437 24.5975C32.7222 24.7614 32.6472 24.9137 32.5303 25.0306C32.4134 25.1475 32.2612 25.2225 32.0973 25.2439ZM38.7498 38.75C38.6014 38.75 38.4564 38.794 38.3331 38.8764C38.2097 38.9588 38.1136 39.0759 38.0569 39.213C38.0001 39.35 37.9852 39.5008 38.0142 39.6463C38.0431 39.7918 38.1145 39.9254 38.2194 40.0303C38.3243 40.1352 38.458 40.2067 38.6034 40.2356C38.7489 40.2645 38.8997 40.2497 39.0368 40.1929C39.1738 40.1361 39.291 40.04 39.3734 39.9167C39.4558 39.7933 39.4998 39.6483 39.4998 39.5C39.4998 39.3011 39.4207 39.1103 39.2801 38.9697C39.1394 38.829 38.9487 38.75 38.7498 38.75ZM38.7498 35C38.6014 35 38.4564 35.044 38.3331 35.1264C38.2097 35.2088 38.1136 35.3259 38.0569 35.463C38.0001 35.6 37.9852 35.7508 38.0142 35.8963C38.0431 36.0418 38.1145 36.1754 38.2194 36.2803C38.3243 36.3852 38.458 36.4567 38.6034 36.4856C38.7489 36.5145 38.8997 36.4997 39.0368 36.4429C39.1738 36.3861 39.291 36.29 39.3734 36.1667C39.4558 36.0433 39.4998 35.8983 39.4998 35.75C39.4998 35.5511 39.4207 35.3603 39.2801 35.2197C39.1394 35.079 38.9487 35 38.7498 35ZM38.7498 31.25C38.6014 31.25 38.4564 31.294 38.3331 31.3764C38.2097 31.4588 38.1136 31.5759 38.0569 31.713C38.0001 31.85 37.9852 32.0008 38.0142 32.1463C38.0431 32.2918 38.1145 32.4254 38.2194 32.5303C38.3243 32.6352 38.458 32.7067 38.6034 32.7356C38.7489 32.7645 38.8997 32.7497 39.0368 32.6929C39.1738 32.6361 39.291 32.54 39.3734 32.4167C39.4558 32.2933 39.4998 32.1483 39.4998 32C39.4998 31.8011 39.4207 31.6103 39.2801 31.4697C39.1394 31.329 38.9487 31.25 38.7498 31.25ZM35.7498 38.75C35.6014 38.75 35.4564 38.794 35.3331 38.8764C35.2097 38.9588 35.1136 39.0759 35.0569 39.213C35.0001 39.35 34.9852 39.5008 35.0142 39.6463C35.0431 39.7918 35.1145 39.9254 35.2194 40.0303C35.3243 40.1352 35.458 40.2067 35.6034 40.2356C35.7489 40.2645 35.8997 40.2497 36.0368 40.1929C36.1738 40.1361 36.291 40.04 36.3734 39.9167C36.4558 39.7933 36.4998 39.6483 36.4998 39.5C36.4998 39.3011 36.4207 39.1103 36.2801 38.9697C36.1394 38.829 35.9487 38.75 35.7498 38.75ZM35.7498 35C35.6014 35 35.4564 35.044 35.3331 35.1264C35.2097 35.2088 35.1136 35.3259 35.0569 35.463C35.0001 35.6 34.9852 35.7508 35.0142 35.8963C35.0431 36.0418 35.1145 36.1754 35.2194 36.2803C35.3243 36.3852 35.458 36.4567 35.6034 36.4856C35.7489 36.5145 35.8997 36.4997 36.0368 36.4429C36.1738 36.3861 36.291 36.29 36.3734 36.1667C36.4558 36.0433 36.4998 35.8983 36.4998 35.75C36.4998 35.5511 36.4207 35.3603 36.2801 35.2197C36.1394 35.079 35.9487 35 35.7498 35ZM35.7498 31.25C35.6014 31.25 35.4564 31.294 35.3331 31.3764C35.2097 31.4588 35.1136 31.5759 35.0569 31.713C35.0001 31.85 34.9852 32.0008 35.0142 32.1463C35.0431 32.2918 35.1145 32.4254 35.2194 32.5303C35.3243 32.6352 35.458 32.7067 35.6034 32.7356C35.7489 32.7645 35.8997 32.7497 36.0368 32.6929C36.1738 32.6361 36.291 32.54 36.3734 32.4167C36.4558 32.2933 36.4998 32.1483 36.4998 32C36.4998 31.8011 36.4207 31.6103 36.2801 31.4697C36.1394 31.329 35.9487 31.25 35.7498 31.25Z" fill="black"/>
<path d="M84.25 28.25H79V23C79 22.4033 78.7629 21.831 78.341 21.409C77.919 20.9871 77.3467 20.75 76.75 20.75H67.75C67.1533 20.75 66.581 20.9871 66.159 21.409C65.7371 21.831 65.5 22.4033 65.5 23V42.5C65.5 42.6989 65.579 42.8897 65.7197 43.0303C65.8603 43.171 66.0511 43.25 66.25 43.25H71.125C71.2245 43.25 71.3198 43.2105 71.3902 43.1402C71.4605 43.0698 71.5 42.9745 71.5 42.875V39.5211C71.5 39.1175 71.8103 38.7711 72.2139 38.7509C72.3153 38.7461 72.4167 38.7618 72.5118 38.7972C72.6069 38.8327 72.6939 38.8871 72.7674 38.9571C72.8409 39.0271 72.8994 39.1114 72.9394 39.2047C72.9794 39.298 73 39.3985 73 39.5V42.875C73 42.9745 73.0395 43.0698 73.1098 43.1402C73.1802 43.2105 73.2755 43.25 73.375 43.25H85.75C85.9489 43.25 86.1397 43.171 86.2803 43.0303C86.421 42.8897 86.5 42.6989 86.5 42.5V30.5C86.5 29.9033 86.2629 29.331 85.841 28.909C85.419 28.4871 84.8467 28.25 84.25 28.25ZM68.5975 40.2439C68.4422 40.2642 68.2844 40.2354 68.1463 40.1615C68.0082 40.0875 67.8967 39.9722 67.8274 39.8317C67.7582 39.6911 67.7347 39.5325 67.7603 39.3779C67.7858 39.2234 67.8591 39.0807 67.9699 38.9699C68.0807 38.8591 68.2234 38.7858 68.3779 38.7603C68.5325 38.7347 68.6911 38.7582 68.8317 38.8274C68.9722 38.8967 69.0875 39.0082 69.1615 39.1463C69.2354 39.2844 69.2642 39.4422 69.2439 39.5975C69.2225 39.7614 69.1475 39.9137 69.0306 40.0306C68.9137 40.1475 68.7614 40.2225 68.5975 40.2439ZM68.5975 36.4939C68.4422 36.5142 68.2844 36.4854 68.1463 36.4115C68.0082 36.3375 67.8967 36.2222 67.8274 36.0817C67.7582 35.9411 67.7347 35.7825 67.7603 35.6279C67.7858 35.4734 67.8591 35.3307 67.9699 35.2199C68.0807 35.1091 68.2234 35.0358 68.3779 35.0103C68.5325 34.9847 68.6911 35.0082 68.8317 35.0774C68.9722 35.1467 69.0875 35.2582 69.1615 35.3963C69.2354 35.5344 69.2642 35.6922 69.2439 35.8475C69.2225 36.0114 69.1475 36.1637 69.0306 36.2806C68.9137 36.3975 68.7614 36.4725 68.5975 36.4939ZM68.5975 32.7439C68.4422 32.7642 68.2844 32.7354 68.1463 32.6615C68.0082 32.5875 67.8967 32.4722 67.8274 32.3317C67.7582 32.1911 67.7347 32.0325 67.7603 31.8779C67.7858 31.7234 67.8591 31.5807 67.9699 31.4699C68.0807 31.3591 68.2234 31.2858 68.3779 31.2603C68.5325 31.2347 68.6911 31.2582 68.8317 31.3274C68.9722 31.3967 69.0875 31.5082 69.1615 31.6463C69.2354 31.7844 69.2642 31.9422 69.2439 32.0975C69.2225 32.2614 69.1475 32.4137 69.0306 32.5306C68.9137 32.6475 68.7614 32.7225 68.5975 32.7439ZM68.5975 28.9939C68.4422 29.0142 68.2844 28.9854 68.1463 28.9115C68.0082 28.8375 67.8967 28.7222 67.8274 28.5817C67.7582 28.4411 67.7347 28.2825 67.7603 28.1279C67.7858 27.9734 67.8591 27.8307 67.9699 27.7199C68.0807 27.6091 68.2234 27.5358 68.3779 27.5103C68.5325 27.4847 68.6911 27.5082 68.8317 27.5774C68.9722 27.6467 69.0875 27.7582 69.1615 27.8963C69.2354 28.0344 69.2642 28.1922 69.2439 28.3475C69.2225 28.5114 69.1475 28.6637 69.0306 28.7806C68.9137 28.8975 68.7614 28.9725 68.5975 28.9939ZM68.5975 25.2439C68.4422 25.2642 68.2844 25.2354 68.1463 25.1615C68.0082 25.0875 67.8967 24.9722 67.8274 24.8317C67.7582 24.6911 67.7347 24.5325 67.7603 24.3779C67.7858 24.2234 67.8591 24.0807 67.9699 23.9699C68.0807 23.8591 68.2234 23.7858 68.3779 23.7603C68.5325 23.7347 68.6911 23.7582 68.8317 23.8274C68.9722 23.8967 69.0875 24.0082 69.1615 24.1463C69.2354 24.2844 69.2642 24.4422 69.2439 24.5975C69.2225 24.7614 69.1475 24.9137 69.0306 25.0306C68.9137 25.1475 68.7614 25.2225 68.5975 25.2439ZM72.3475 36.4939C72.1922 36.5142 72.0344 36.4854 71.8963 36.4115C71.7582 36.3375 71.6467 36.2222 71.5774 36.0817C71.5082 35.9411 71.4847 35.7825 71.5103 35.6279C71.5358 35.4734 71.6091 35.3307 71.7199 35.2199C71.8307 35.1091 71.9734 35.0358 72.1279 35.0103C72.2825 34.9847 72.4411 35.0082 72.5817 35.0774C72.7222 35.1467 72.8375 35.2582 72.9115 35.3963C72.9854 35.5344 73.0142 35.6922 72.9939 35.8475C72.9725 36.0114 72.8975 36.1637 72.7806 36.2806C72.6637 36.3975 72.5114 36.4725 72.3475 36.4939ZM72.3475 32.7439C72.1922 32.7642 72.0344 32.7354 71.8963 32.6615C71.7582 32.5875 71.6467 32.4722 71.5774 32.3317C71.5082 32.1911 71.4847 32.0325 71.5103 31.8779C71.5358 31.7234 71.6091 31.5807 71.7199 31.4699C71.8307 31.3591 71.9734 31.2858 72.1279 31.2603C72.2825 31.2347 72.4411 31.2582 72.5817 31.3274C72.7222 31.3967 72.8375 31.5082 72.9115 31.6463C72.9854 31.7844 73.0142 31.9422 72.9939 32.0975C72.9725 32.2614 72.8975 32.4137 72.7806 32.5306C72.6637 32.6475 72.5114 32.7225 72.3475 32.7439ZM72.3475 28.9939C72.1922 29.0142 72.0344 28.9854 71.8963 28.9115C71.7582 28.8375 71.6467 28.7222 71.5774 28.5817C71.5082 28.4411 71.4847 28.2825 71.5103 28.1279C71.5358 27.9734 71.6091 27.8307 71.7199 27.7199C71.8307 27.6091 71.9734 27.5358 72.1279 27.5103C72.2825 27.4847 72.4411 27.5082 72.5817 27.5774C72.7222 27.6467 72.8375 27.7582 72.9115 27.8963C72.9854 28.0344 73.0142 28.1922 72.9939 28.3475C72.9725 28.5114 72.8975 28.6637 72.7806 28.7806C72.6637 28.8975 72.5114 28.9725 72.3475 28.9939ZM72.3475 25.2439C72.1922 25.2642 72.0344 25.2354 71.8963 25.1615C71.7582 25.0875 71.6467 24.9722 71.5774 24.8317C71.5082 24.6911 71.4847 24.5325 71.5103 24.3779C71.5358 24.2234 71.6091 24.0807 71.7199 23.9699C71.8307 23.8591 71.9734 23.7858 72.1279 23.7603C72.2825 23.7347 72.4411 23.7582 72.5817 23.8274C72.7222 23.8967 72.8375 24.0082 72.9115 24.1463C72.9854 24.2844 73.0142 24.4422 72.9939 24.5975C72.9725 24.7614 72.8975 24.9137 72.7806 25.0306C72.6637 25.1475 72.5114 25.2225 72.3475 25.2439ZM76.0975 40.2439C75.9422 40.2642 75.7844 40.2354 75.6463 40.1615C75.5082 40.0875 75.3967 39.9722 75.3274 39.8317C75.2582 39.6911 75.2347 39.5325 75.2603 39.3779C75.2858 39.2234 75.3591 39.0807 75.4699 38.9699C75.5807 38.8591 75.7234 38.7858 75.8779 38.7603C76.0325 38.7347 76.1911 38.7582 76.3317 38.8274C76.4722 38.8967 76.5875 39.0082 76.6615 39.1463C76.7354 39.2844 76.7642 39.4422 76.7439 39.5975C76.7225 39.7614 76.6475 39.9137 76.5306 40.0306C76.4137 40.1475 76.2614 40.2225 76.0975 40.2439ZM76.0975 36.4939C75.9422 36.5142 75.7844 36.4854 75.6463 36.4115C75.5082 36.3375 75.3967 36.2222 75.3274 36.0817C75.2582 35.9411 75.2347 35.7825 75.2603 35.6279C75.2858 35.4734 75.3591 35.3307 75.4699 35.2199C75.5807 35.1091 75.7234 35.0358 75.8779 35.0103C76.0325 34.9847 76.1911 35.0082 76.3317 35.0774C76.4722 35.1467 76.5875 35.2582 76.6615 35.3963C76.7354 35.5344 76.7642 35.6922 76.7439 35.8475C76.7225 36.0114 76.6475 36.1637 76.5306 36.2806C76.4137 36.3975 76.2614 36.4725 76.0975 36.4939ZM76.0975 32.7439C75.9422 32.7642 75.7844 32.7354 75.6463 32.6615C75.5082 32.5875 75.3967 32.4722 75.3274 32.3317C75.2582 32.1911 75.2347 32.0325 75.2603 31.8779C75.2858 31.7234 75.3591 31.5807 75.4699 31.4699C75.5807 31.3591 75.7234 31.2858 75.8779 31.2603C76.0325 31.2347 76.1911 31.2582 76.3317 31.3274C76.4722 31.3967 76.5875 31.5082 76.6615 31.6463C76.7354 31.7844 76.7642 31.9422 76.7439 32.0975C76.7225 32.2614 76.6475 32.4137 76.5306 32.5306C76.4137 32.6475 76.2614 32.7225 76.0975 32.7439ZM76.0975 28.9939C75.9422 29.0142 75.7844 28.9854 75.6463 28.9115C75.5082 28.8375 75.3967 28.7222 75.3274 28.5817C75.2582 28.4411 75.2347 28.2825 75.2603 28.1279C75.2858 27.9734 75.3591 27.8307 75.4699 27.7199C75.5807 27.6091 75.7234 27.5358 75.8779 27.5103C76.0325 27.4847 76.1911 27.5082 76.3317 27.5774C76.4722 27.6467 76.5875 27.7582 76.6615 27.8963C76.7354 28.0344 76.7642 28.1922 76.7439 28.3475C76.7225 28.5114 76.6475 28.6637 76.5306 28.7806C76.4137 28.8975 76.2614 28.9725 76.0975 28.9939ZM76.0975 25.2439C75.9422 25.2642 75.7844 25.2354 75.6463 25.1615C75.5082 25.0875 75.3967 24.9722 75.3274 24.8317C75.2582 24.6911 75.2347 24.5325 75.2603 24.3779C75.2858 24.2234 75.3591 24.0807 75.4699 23.9699C75.5807 23.8591 75.7234 23.7858 75.8779 23.7603C76.0325 23.7347 76.1911 23.7582 76.3317 23.8274C76.4722 23.8967 76.5875 24.0082 76.6615 24.1463C76.7354 24.2844 76.7642 24.4422 76.7439 24.5975C76.7225 24.7614 76.6475 24.9137 76.5306 25.0306C76.4137 25.1475 76.2614 25.2225 76.0975 25.2439ZM84.8125 41.75H79V29.75H84.25C84.4489 29.75 84.6397 29.829 84.7803 29.9697C84.921 30.1103 85 30.3011 85 30.5V41.5625C85 41.6122 84.9802 41.6599 84.9451 41.6951C84.9099 41.7302 84.8622 41.75 84.8125 41.75Z" fill="black"/>
<path d="M82.75 38.75C82.6017 38.75 82.4567 38.794 82.3333 38.8764C82.21 38.9588 82.1139 39.0759 82.0571 39.213C82.0003 39.35 81.9855 39.5008 82.0144 39.6463C82.0434 39.7918 82.1148 39.9254 82.2197 40.0303C82.3246 40.1352 82.4582 40.2066 82.6037 40.2356C82.7492 40.2645 82.9 40.2497 83.037 40.1929C83.1741 40.1361 83.2912 40.04 83.3736 39.9167C83.456 39.7933 83.5 39.6483 83.5 39.5C83.5 39.3011 83.421 39.1103 83.2803 38.9697C83.1397 38.829 82.9489 38.75 82.75 38.75ZM82.75 35C82.6017 35 82.4567 35.044 82.3333 35.1264C82.21 35.2088 82.1139 35.3259 82.0571 35.463C82.0003 35.6 81.9855 35.7508 82.0144 35.8963C82.0434 36.0418 82.1148 36.1754 82.2197 36.2803C82.3246 36.3852 82.4582 36.4567 82.6037 36.4856C82.7492 36.5145 82.9 36.4997 83.037 36.4429C83.1741 36.3861 83.2912 36.29 83.3736 36.1667C83.456 36.0433 83.5 35.8983 83.5 35.75C83.5 35.5511 83.421 35.3603 83.2803 35.2197C83.1397 35.079 82.9489 35 82.75 35ZM82.75 31.25C82.6017 31.25 82.4567 31.294 82.3333 31.3764C82.21 31.4588 82.1139 31.5759 82.0571 31.713C82.0003 31.85 81.9855 32.0008 82.0144 32.1463C82.0434 32.2918 82.1148 32.4254 82.2197 32.5303C82.3246 32.6352 82.4582 32.7067 82.6037 32.7356C82.7492 32.7645 82.9 32.7497 83.037 32.6929C83.1741 32.6361 83.2912 32.54 83.3736 32.4167C83.456 32.2933 83.5 32.1483 83.5 32C83.5 31.8011 83.421 31.6103 83.2803 31.4697C83.1397 31.329 82.9489 31.25 82.75 31.25ZM79.75 38.75C79.6017 38.75 79.4567 38.794 79.3333 38.8764C79.21 38.9588 79.1139 39.0759 79.0571 39.213C79.0003 39.35 78.9855 39.5008 79.0144 39.6463C79.0434 39.7918 79.1148 39.9254 79.2197 40.0303C79.3246 40.1352 79.4582 40.2066 79.6037 40.2356C79.7492 40.2645 79.9 40.2497 80.037 40.1929C80.1741 40.1361 80.2912 40.04 80.3736 39.9167C80.456 39.7933 80.5 39.6483 80.5 39.5C80.5 39.3011 80.421 39.1103 80.2803 38.9697C80.1397 38.829 79.9489 38.75 79.75 38.75ZM79.75 35C79.6017 35 79.4567 35.044 79.3333 35.1264C79.21 35.2088 79.1139 35.3259 79.0571 35.463C79.0003 35.6 78.9855 35.7508 79.0144 35.8963C79.0434 36.0418 79.1148 36.1754 79.2197 36.2803C79.3246 36.3852 79.4582 36.4567 79.6037 36.4856C79.7492 36.5145 79.9 36.4997 80.037 36.4429C80.1741 36.3861 80.2912 36.29 80.3736 36.1667C80.456 36.0433 80.5 35.8983 80.5 35.75C80.5 35.5511 80.421 35.3603 80.2803 35.2197C80.1397 35.079 79.9489 35 79.75 35ZM79.75 31.25C79.6017 31.25 79.4567 31.294 79.3333 31.3764C79.21 31.4588 79.1139 31.5759 79.0571 31.713C79.0003 31.85 78.9855 32.0008 79.0144 32.1463C79.0434 32.2918 79.1148 32.4254 79.2197 32.5303C79.3246 32.6352 79.4582 32.7067 79.6037 32.7356C79.7492 32.7645 79.9 32.7497 80.037 32.6929C80.1741 32.6361 80.2912 32.54 80.3736 32.4167C80.456 32.2933 80.5 32.1483 80.5 32C80.5 31.8011 80.421 31.6103 80.2803 31.4697C80.1397 31.329 79.9489 31.25 79.75 31.25Z" fill="black"/>
<rect x="0.5" y="0.5" width="107" height="63" rx="4.5" stroke="#9747FF" stroke-dasharray="10 5"/>
</svg>
