<svg width="108" height="64" viewBox="0 0 108 64" fill="none" xmlns="http://www.w3.org/2000/svg">
<path d="M32 22.25C26.6239 22.25 22.25 26.6239 22.25 32C22.25 37.3761 26.6239 41.75 32 41.75C37.3761 41.75 41.75 37.3761 41.75 32C41.75 26.6239 37.3761 22.25 32 22.25ZM35.5011 34.1009C35.0614 34.6372 34.2636 35.4945 32.4214 36.7452C32.2972 36.8302 32.1501 36.8757 31.9995 36.8757C31.849 36.8757 31.7019 36.8302 31.5777 36.7452C29.7355 35.4945 28.9377 34.6358 28.498 34.1009C27.5605 32.9586 27.1114 31.7853 27.1245 30.515C27.1391 29.0591 28.3067 27.8745 29.7275 27.8745C30.6838 27.8745 31.3681 28.3728 31.7947 28.8312C31.821 28.8591 31.8527 28.8812 31.8878 28.8963C31.9229 28.9115 31.9608 28.9193 31.9991 28.9193C32.0373 28.9193 32.0752 28.9115 32.1103 28.8963C32.1455 28.8812 32.1772 28.8591 32.2034 28.8312C32.6305 28.3728 33.3144 27.8745 34.2706 27.8745C35.6914 27.8745 36.8591 29.0591 36.8736 30.515C36.8877 31.7853 36.4381 32.9586 35.5011 34.1009Z" fill="black"/>
<path d="M85 32C85 27.0312 80.9688 23 76 23C71.0312 23 67 27.0312 67 32C67 36.9688 71.0312 41 76 41C80.9688 41 85 36.9688 85 32Z" stroke="black" stroke-width="1.5" stroke-miterlimit="10"/>
<path d="M76.0003 36.875C75.8498 36.8748 75.7028 36.8294 75.5784 36.7446C73.7362 35.494 72.9384 34.6353 72.4987 34.1004C71.5612 32.9581 71.1122 31.7848 71.1253 30.5145C71.1398 29.0586 72.3075 27.874 73.7282 27.874C74.6845 27.874 75.3689 28.3723 75.7954 28.8307C75.8217 28.8585 75.8534 28.8807 75.8885 28.8958C75.9237 28.911 75.9615 28.9188 75.9998 28.9188C76.0381 28.9188 76.0759 28.911 76.1111 28.8958C76.1462 28.8807 76.1779 28.8585 76.2042 28.8307C76.6312 28.3723 77.3151 27.874 78.2714 27.874C79.6922 27.874 80.8598 29.0586 80.8743 30.5145C80.8875 31.7848 80.4379 32.9581 79.5009 34.1004C79.0612 34.6367 78.2634 35.494 76.4212 36.7446C76.2971 36.8293 76.1505 36.8747 76.0003 36.875Z" fill="black"/>
<rect x="0.5" y="0.5" width="107" height="63" rx="4.5" stroke="#9747FF" stroke-dasharray="10 5"/>
</svg>
