<svg width="108" height="64" viewBox="0 0 108 64" fill="none" xmlns="http://www.w3.org/2000/svg">
<path d="M32 22.25C28.2734 22.25 25.25 25.1277 25.25 28.6719C25.25 32.75 29.75 39.2127 31.4023 41.4448C31.4709 41.5391 31.5608 41.6157 31.6647 41.6686C31.7686 41.7215 31.8835 41.749 32 41.749C32.1165 41.749 32.2314 41.7215 32.3353 41.6686C32.4392 41.6157 32.5291 41.5391 32.5977 41.4448C34.25 39.2136 38.75 32.7533 38.75 28.6719C38.75 25.1277 35.7266 22.25 32 22.25Z" stroke="black" stroke-width="1.5" stroke-linecap="round" stroke-linejoin="round"/>
<path d="M32 31.25C33.2426 31.25 34.25 30.2426 34.25 29C34.25 27.7574 33.2426 26.75 32 26.75C30.7574 26.75 29.75 27.7574 29.75 29C29.75 30.2426 30.7574 31.25 32 31.25Z" stroke="black" stroke-width="1.5" stroke-linecap="round" stroke-linejoin="round"/>
<path d="M76 30.5C76.8284 30.5 77.5 29.8284 77.5 29C77.5 28.1716 76.8284 27.5 76 27.5C75.1716 27.5 74.5 28.1716 74.5 29C74.5 29.8284 75.1716 30.5 76 30.5Z" fill="black"/>
<path d="M76 21.5C71.8647 21.5 68.5 24.718 68.5 28.6719C68.5 30.5548 69.3583 33.0589 71.0509 36.1147C72.4103 38.5681 73.983 40.7867 74.8009 41.8906C74.9392 42.0792 75.1199 42.2326 75.3284 42.3384C75.537 42.4441 75.7676 42.4992 76.0014 42.4992C76.2352 42.4992 76.4658 42.4441 76.6744 42.3384C76.8829 42.2326 77.0637 42.0792 77.2019 41.8906C78.0184 40.7867 79.5925 38.5681 80.9519 36.1147C82.6417 33.0598 83.5 30.5558 83.5 28.6719C83.5 24.718 80.1353 21.5 76 21.5ZM76 32C75.4067 32 74.8266 31.8241 74.3333 31.4944C73.8399 31.1648 73.4554 30.6962 73.2284 30.1481C73.0013 29.5999 72.9419 28.9967 73.0576 28.4147C73.1734 27.8328 73.4591 27.2982 73.8787 26.8787C74.2982 26.4591 74.8328 26.1734 75.4147 26.0576C75.9967 25.9419 76.5999 26.0013 77.1481 26.2284C77.6962 26.4554 78.1648 26.8399 78.4944 27.3333C78.8241 27.8266 79 28.4067 79 29C78.9991 29.7954 78.6828 30.5579 78.1204 31.1204C77.5579 31.6828 76.7954 31.9991 76 32Z" fill="black"/>
<rect x="0.5" y="0.5" width="107" height="63" rx="4.5" stroke="#9747FF" stroke-dasharray="10 5"/>
</svg>
