<svg width="108" height="64" viewBox="0 0 108 64" fill="none" xmlns="http://www.w3.org/2000/svg">
<path d="M26 34.25C27.2426 34.25 28.25 33.2426 28.25 32C28.25 30.7574 27.2426 29.75 26 29.75C24.7574 29.75 23.75 30.7574 23.75 32C23.75 33.2426 24.7574 34.25 26 34.25Z" stroke="black" stroke-width="1.5" stroke-linecap="round" stroke-linejoin="round"/>
<path d="M38 27.5C39.2426 27.5 40.25 26.4926 40.25 25.25C40.25 24.0074 39.2426 23 38 23C36.7574 23 35.75 24.0074 35.75 25.25C35.75 26.4926 36.7574 27.5 38 27.5Z" stroke="black" stroke-width="1.5" stroke-linecap="round" stroke-linejoin="round"/>
<path d="M38 41C39.2426 41 40.25 39.9926 40.25 38.75C40.25 37.5074 39.2426 36.5 38 36.5C36.7574 36.5 35.75 37.5074 35.75 38.75C35.75 39.9926 36.7574 41 38 41Z" stroke="black" stroke-width="1.5" stroke-linecap="round" stroke-linejoin="round"/>
<path d="M27.9609 33.103L36.0394 37.6471M36.0394 26.353L27.9609 30.8971" stroke="black" stroke-width="1.5" stroke-linecap="round" stroke-linejoin="round"/>
<path d="M81.9999 35.75C81.5959 35.7499 81.196 35.8316 80.8244 35.9903C80.4528 36.149 80.1173 36.3814 79.838 36.6734L72.9005 32.7702C73.0349 32.2655 73.0349 31.7345 72.9005 31.2299L79.838 27.3266C80.3432 27.8503 81.022 28.1719 81.7473 28.2311C82.4726 28.2903 83.1946 28.083 83.778 27.6481C84.3614 27.2132 84.7662 26.5805 84.9166 25.8685C85.067 25.1565 84.9527 24.4141 84.595 23.7804C84.2373 23.1467 83.6609 22.6652 82.9736 22.426C82.2864 22.1868 81.5355 22.2063 80.8616 22.481C80.1878 22.7557 79.6372 23.2667 79.3131 23.9182C78.9889 24.5697 78.9134 25.317 79.1007 26.0202L72.1632 29.9234C71.7488 29.4914 71.2146 29.1932 70.6293 29.0672C70.0441 28.9412 69.4345 28.9932 68.879 29.2165C68.3235 29.4398 67.8476 29.8243 67.5124 30.3203C67.1772 30.8163 66.998 31.4013 66.998 32C66.998 32.5987 67.1772 33.1837 67.5124 33.6797C67.8476 34.1758 68.3235 34.5602 68.879 34.7835C69.4345 35.0068 70.0441 35.0588 70.6293 34.9328C71.2146 34.8069 71.7488 34.5086 72.1632 34.0766L79.1007 37.9799C78.9398 38.5854 78.9726 39.2261 79.1945 39.8121C79.4163 40.3981 79.816 40.8999 80.3376 41.2472C80.8591 41.5944 81.4763 41.7696 82.1025 41.7483C82.7287 41.7269 83.3325 41.51 83.8291 41.128C84.3258 40.746 84.6904 40.2181 84.8717 39.6184C85.0531 39.0186 85.0421 38.3772 84.8404 37.784C84.6386 37.1908 84.2562 36.6757 83.7468 36.3109C83.2373 35.9461 82.6265 35.75 81.9999 35.75Z" fill="black"/>
<rect x="0.5" y="0.5" width="107" height="63" rx="4.5" stroke="#9747FF" stroke-dasharray="10 5"/>
</svg>
