<svg width="108" height="64" viewBox="0 0 108 64" fill="none" xmlns="http://www.w3.org/2000/svg">
<g clip-path="url(#clip0_48_5000)">
<path d="M32.1838 32.3239L30.1437 27.0205C30.1131 26.9409 30.0591 26.8724 29.9888 26.8242C29.9185 26.7759 29.8353 26.7501 29.75 26.7501C29.6647 26.7501 29.5815 26.7759 29.5112 26.8242C29.4409 26.8724 29.3869 26.9409 29.3563 27.0205L27.3163 32.3239C27.2951 32.379 27.2625 32.4291 27.2208 32.4708C27.1791 32.5125 27.129 32.5451 27.0739 32.5662L21.7705 34.6063C21.6909 34.6369 21.6224 34.6909 21.5742 34.7612C21.5259 34.8315 21.5001 34.9147 21.5001 35C21.5001 35.0853 21.5259 35.1685 21.5742 35.2388C21.6224 35.3091 21.6909 35.3631 21.7705 35.3937L27.0739 37.4338C27.129 37.4549 27.1791 37.4875 27.2208 37.5292C27.2625 37.5709 27.2951 37.621 27.3163 37.6761L29.3563 42.9795C29.3869 43.0591 29.4409 43.1276 29.5112 43.1758C29.5815 43.2241 29.6647 43.2499 29.75 43.2499C29.8353 43.2499 29.9185 43.2241 29.9888 43.1758C30.0591 43.1276 30.1131 43.0591 30.1437 42.9795L32.1838 37.6761C32.2049 37.621 32.2375 37.5709 32.2792 37.5292C32.3209 37.4875 32.371 37.4549 32.4261 37.4338L37.7295 35.3937C37.8091 35.3631 37.8776 35.3091 37.9258 35.2388C37.9741 35.1685 37.9999 35.0853 37.9999 35C37.9999 34.9147 37.9741 34.8315 37.9258 34.7612C37.8776 34.6909 37.8091 34.6369 37.7295 34.6063L32.4261 32.5662C32.371 32.5451 32.3209 32.5125 32.2792 32.4708C32.2375 32.4291 32.2049 32.379 32.1838 32.3239ZM25.0625 23.1875L24.125 20.75L23.1875 23.1875L20.75 24.125L23.1875 25.0625L24.125 27.5L25.0625 25.0625L27.5 24.125L25.0625 23.1875ZM40.0002 25.4998L38.75 22.25L37.4998 25.4998L34.25 26.75L37.4998 28.0002L38.75 31.25L40.0002 28.0002L43.25 26.75L40.0002 25.4998Z" stroke="black" stroke-width="1.5" stroke-linecap="round" stroke-linejoin="round"/>
</g>
<g clip-path="url(#clip1_48_5000)">
<path d="M73.7499 44C73.5129 44.0012 73.2811 43.93 73.0856 43.796C72.8901 43.662 72.7402 43.4715 72.6558 43.25L70.7883 38.3937C70.7505 38.2959 70.6927 38.207 70.6185 38.1328C70.5443 38.0586 70.4554 38.0008 70.3576 37.963L65.4999 36.0941C65.2786 36.0091 65.0883 35.8591 64.9541 35.6638C64.8198 35.4684 64.7479 35.237 64.7479 35C64.7479 34.763 64.8198 34.5315 64.9541 34.3362C65.0883 34.1409 65.2786 33.9909 65.4999 33.9059L70.3562 32.0384C70.454 32.0006 70.5429 31.9427 70.6171 31.8686C70.6913 31.7944 70.7491 31.7055 70.7869 31.6076L72.6558 26.75C72.7408 26.5287 72.8908 26.3384 73.0861 26.2041C73.2815 26.0699 73.5129 25.998 73.7499 25.998C73.9869 25.998 74.2184 26.0699 74.4137 26.2041C74.609 26.3384 74.759 26.5287 74.844 26.75L76.7115 31.6062C76.7493 31.7041 76.8072 31.793 76.8813 31.8672C76.9555 31.9413 77.0444 31.9992 77.1423 32.037L81.9704 33.8947C82.2007 33.98 82.3991 34.1343 82.5385 34.3364C82.678 34.5386 82.7518 34.7788 82.7499 35.0244C82.7463 35.2573 82.6729 35.4837 82.5392 35.6744C82.4055 35.8651 82.2176 36.0113 81.9999 36.0941L77.1437 37.9616C77.0458 37.9994 76.9569 38.0572 76.8827 38.1314C76.8086 38.2056 76.7507 38.2945 76.7129 38.3923L74.844 43.25C74.7596 43.4715 74.6097 43.662 74.4142 43.796C74.2187 43.93 73.9869 44.0012 73.7499 44ZM68.1249 28.25C67.986 28.25 67.8503 28.2079 67.7357 28.1292C67.6211 28.0506 67.5331 27.9391 67.4832 27.8094L66.6929 25.7544C66.6758 25.7094 66.6493 25.6686 66.6153 25.6346C66.5813 25.6006 66.5405 25.5742 66.4955 25.557L64.4405 24.7667C64.3109 24.7168 64.1994 24.6287 64.1207 24.5142C64.0421 24.3996 64 24.2639 64 24.125C64 23.986 64.0421 23.8504 64.1207 23.7358C64.1994 23.6212 64.3109 23.5332 64.4405 23.4833L66.4955 22.693C66.5404 22.6758 66.5812 22.6493 66.6152 22.6153C66.6492 22.5813 66.6757 22.5405 66.6929 22.4956L67.4762 20.4589C67.5203 20.339 67.5963 20.2334 67.696 20.1534C67.7957 20.0735 67.9153 20.0222 68.0419 20.0051C68.194 19.9867 68.3478 20.0195 68.4791 20.0984C68.6104 20.1772 68.7116 20.2977 68.7666 20.4406L69.5569 22.4956C69.5741 22.5405 69.6006 22.5813 69.6346 22.6153C69.6686 22.6493 69.7094 22.6758 69.7543 22.693L71.8093 23.4833C71.939 23.5332 72.0505 23.6212 72.1291 23.7358C72.2077 23.8504 72.2498 23.986 72.2498 24.125C72.2498 24.2639 72.2077 24.3996 72.1291 24.5142C72.0505 24.6287 71.939 24.7168 71.8093 24.7667L69.7543 25.557C69.7093 25.5742 69.6685 25.6006 69.6345 25.6346C69.6005 25.6686 69.5741 25.7094 69.5569 25.7544L68.7666 27.8094C68.7167 27.9391 68.6287 28.0506 68.5141 28.1292C68.3996 28.2079 68.2639 28.25 68.1249 28.25ZM82.7499 32C82.5983 31.9999 82.4503 31.954 82.3254 31.8681C82.2004 31.7823 82.1045 31.6606 82.0501 31.5191L80.9794 28.7361C80.9606 28.687 80.9317 28.6425 80.8945 28.6054C80.8574 28.5682 80.8129 28.5393 80.7638 28.5205L77.9808 27.4498C77.8395 27.3954 77.7179 27.2993 77.6321 27.1744C77.5464 27.0495 77.5005 26.9015 77.5005 26.75C77.5005 26.5985 77.5464 26.4505 77.6321 26.3256C77.7179 26.2007 77.8395 26.1046 77.9808 26.0501L80.7638 24.9795C80.8129 24.9607 80.8574 24.9318 80.8945 24.8946C80.9317 24.8575 80.9606 24.8129 80.9794 24.7639L82.0421 22.0006C82.0906 21.8699 82.1736 21.7549 82.2823 21.6676C82.391 21.5804 82.5214 21.5242 82.6594 21.5051C82.8254 21.4851 82.9932 21.521 83.1364 21.6072C83.2796 21.6934 83.3899 21.8249 83.4498 21.9809L84.5204 24.7639C84.5392 24.8129 84.5681 24.8575 84.6053 24.8946C84.6424 24.9318 84.687 24.9607 84.736 24.9795L87.519 26.0501C87.6604 26.1046 87.7819 26.2007 87.8677 26.3256C87.9534 26.4505 87.9993 26.5985 87.9993 26.75C87.9993 26.9015 87.9534 27.0495 87.8677 27.1744C87.7819 27.2993 87.6604 27.3954 87.519 27.4498L84.736 28.5205C84.687 28.5393 84.6424 28.5682 84.6053 28.6054C84.5681 28.6425 84.5392 28.687 84.5204 28.7361L83.4498 31.5191C83.3954 31.6606 83.2994 31.7823 83.1745 31.8681C83.0495 31.954 82.9015 31.9999 82.7499 32Z" fill="black"/>
</g>
<rect x="0.5" y="0.5" width="107" height="63" rx="4.5" stroke="#9747FF" stroke-dasharray="10 5"/>
<defs>
<clipPath id="clip0_48_5000">
<rect width="24" height="24" fill="white" transform="translate(20 20)"/>
</clipPath>
<clipPath id="clip1_48_5000">
<rect width="24" height="24" fill="white" transform="translate(64 20)"/>
</clipPath>
</defs>
</svg>
