<svg width="108" height="64" viewBox="0 0 108 64" fill="none" xmlns="http://www.w3.org/2000/svg">
<path d="M42.5 29.75H34.4375L32 22.25L29.5625 29.75H21.5L28.0625 34.25L25.5312 41.75L32 37.0625L38.4688 41.75L35.9375 34.25L42.5 29.75Z" stroke="black" stroke-width="1.5" stroke-linejoin="round"/>
<path d="M82.4687 42.5C82.3109 42.5006 82.1568 42.4514 82.0286 42.3594L76 37.9887L69.9714 42.3594C69.8426 42.4528 69.6874 42.5028 69.5283 42.5022C69.3692 42.5017 69.2144 42.4505 69.0863 42.3561C68.9582 42.2618 68.8634 42.1291 68.8156 41.9774C68.7679 41.8256 68.7696 41.6626 68.8206 41.5119L71.1719 34.5476L65.0781 30.3687C64.9461 30.2783 64.8465 30.1481 64.7938 29.997C64.7411 29.8459 64.7381 29.682 64.7852 29.5291C64.8324 29.3762 64.9271 29.2424 65.0557 29.1472C65.1843 29.052 65.34 29.0004 65.5 29H73.0178L75.2865 22.018C75.3354 21.8672 75.4308 21.7358 75.559 21.6426C75.6871 21.5495 75.8415 21.4993 76 21.4993C76.1584 21.4993 76.3128 21.5495 76.441 21.6426C76.5692 21.7358 76.6645 21.8672 76.7134 22.018L78.9822 29.0023H86.5C86.6602 29.0022 86.8162 29.0535 86.9452 29.1485C87.0741 29.2435 87.1693 29.3773 87.2167 29.5303C87.2642 29.6833 87.2613 29.8475 87.2087 29.9988C87.1561 30.1501 87.0564 30.2805 86.9242 30.3711L80.8281 34.5476L83.178 41.51C83.216 41.6227 83.2267 41.7429 83.2092 41.8605C83.1917 41.9782 83.1464 42.09 83.0771 42.1868C83.0078 42.2835 82.9165 42.3623 82.8107 42.4168C82.7049 42.4713 82.5877 42.4998 82.4687 42.5Z" fill="black"/>
<rect x="0.5" y="0.5" width="107" height="63" rx="4.5" stroke="#9747FF" stroke-dasharray="10 5"/>
</svg>
